Sprint_08550001_forces_filt15Hz.mot
version=1
nRows=28
nColumns=19
inDegrees=yes
endheader
time	R_ground_force_vx	R_ground_force_vy	R_ground_force_vz	R_ground_force_px	R_ground_force_py	R_ground_force_pz	R_ground_torque_x	R_ground_torque_y	R_ground_torque_z	L_ground_force_vx	L_ground_force_vy	L_ground_force_vz	L_ground_force_px	L_ground_force_py	L_ground_force_pz	L_ground_torque_x	L_ground_torque_y	L_ground_torque_z	
1.792000	  0.000000	  0.000000	  0.000000	  0.993513	  0.000000	 -0.260779	  0.000000	  0.000000	  0.000000	  0.000000	  0.000000	  0.000000	  0.299689	  0.000000	 -0.365202	  0.000000	  0.000000	  0.000000
1.792500	  0.000000	  0.000000	  0.000000	  0.996544	  0.000000	 -0.260533	  0.000000	  0.000000	  0.000000	  0.000000	  0.000000	  0.000000	  0.297712	  0.000000	 -0.364847	  0.000000	  0.000000	  0.000000
1.793000	  0.000000	  0.000000	  0.000000	  0.999574	  0.000000	 -0.260287	  0.000000	  0.000000	  0.000000	  0.000000	  0.000000	  0.000000	  0.295735	  0.000000	 -0.364493	  0.000000	  0.000000	  0.000000
1.793500	  0.000000	  0.000000	  0.000000	  1.002604	  0.000000	 -0.260041	  0.000000	  0.000000	  0.000000	  0.000000	  0.000000	  0.000000	  0.293758	  0.000000	 -0.364139	  0.000000	  0.000000	  0.000000
1.794000	  0.000000	  0.000000	  0.000000	  1.005634	  0.000000	 -0.259795	  0.000000	  0.000000	  0.000000	  0.000000	  0.000000	  0.000000	  0.291781	  0.000000	 -0.363784	  0.000000	  0.000000	  0.000000
1.794500	  0.000000	  0.000000	  0.000000	  1.008664	  0.000000	 -0.259549	  0.000000	  0.000000	  0.000000	  0.000000	  0.000000	  0.000000	  0.289804	  0.000000	 -0.363430	  0.000000	  0.000000	  0.000000
1.795000	  0.000000	  0.000000	  0.000000	  1.011694	  0.000000	 -0.259303	  0.000000	  0.000000	  0.000000	  0.000000	  0.000000	  0.000000	  0.287827	  0.000000	 -0.363076	  0.000000	  0.000000	  0.000000
1.795500	  0.000000	  0.000000	  0.000000	  1.014575	  0.000000	 -0.259063	  0.000000	  0.000000	  0.000000	  0.000000	  0.000000	  0.000000	  0.285659	  0.000000	 -0.362720	  0.000000	  0.000000	  0.000000
1.796000	  0.000000	  0.000000	  0.000000	  1.017457	  0.000000	 -0.258822	  0.000000	  0.000000	  0.000000	  0.000000	  0.000000	  0.000000	  0.283490	  0.000000	 -0.362365	  0.000000	  0.000000	  0.000000
1.796500	  0.000000	  0.000000	  0.000000	  1.020338	  0.000000	 -0.258581	  0.000000	  0.000000	  0.000000	  0.000000	  0.000000	  0.000000	  0.281322	  0.000000	 -0.362009	  0.000000	  0.000000	  0.000000
1.797000	  0.000000	  0.000000	  0.000000	  1.023220	  0.000000	 -0.258340	  0.000000	  0.000000	  0.000000	  0.000000	  0.000000	  0.000000	  0.279154	  0.000000	 -0.361653	  0.000000	  0.000000	  0.000000
1.797500	  0.000000	  0.000000	  0.000000	  1.026101	  0.000000	 -0.258100	  0.000000	  0.000000	  0.000000	  0.000000	  0.000000	  0.000000	  0.276986	  0.000000	 -0.361298	  0.000000	  0.000000	  0.000000
1.798000	  0.000000	  0.000000	  0.000000	  1.028983	  0.000000	 -0.257859	  0.000000	  0.000000	  0.000000	  0.000000	  0.000000	  0.000000	  0.274817	  0.000000	 -0.360942	  0.000000	  0.000000	  0.000000
1.798500	  0.000000	  0.000000	  0.000000	  1.031864	  0.000000	 -0.257618	  0.000000	  0.000000	  0.000000	  0.000000	  0.000000	  0.000000	  0.272649	  0.000000	 -0.360587	  0.000000	  0.000000	  0.000000
1.799000	  0.000000	  0.000000	  0.000000	  1.034745	  0.000000	 -0.257377	  0.000000	  0.000000	  0.000000	  0.000000	  0.000000	  0.000000	  0.270481	  0.000000	 -0.360231	  0.000000	  0.000000	  0.000000
1.799500	  0.000000	  0.000000	  0.000000	  1.037627	  0.000000	 -0.257137	  0.000000	  0.000000	  0.000000	  0.000000	  0.000000	  0.000000	  0.268313	  0.000000	 -0.359875	  0.000000	  0.000000	  0.000000
1.800000	  0.000000	  0.000000	  0.000000	  1.040508	  0.000000	 -0.256896	  0.000000	  0.000000	  0.000000	  0.000000	  0.000000	  0.000000	  0.266145	  0.000000	 -0.359520	  0.000000	  0.000000	  0.000000
1.800500	  0.000000	  0.000000	  0.000000	  1.043279	  0.000000	 -0.256431	  0.000000	  0.000000	  0.000000	  0.000000	  0.000000	  0.000000	  0.264245	  0.000000	 -0.359192	  0.000000	  0.000000	  0.000000
1.801000	  0.000000	  0.000000	  0.000000	  1.046050	  0.000000	 -0.255965	  0.000000	  0.000000	  0.000000	  0.000000	  0.000000	  0.000000	  0.262346	  0.000000	 -0.358864	  0.000000	  0.000000	  0.000000
1.801500	  0.000000	  0.000000	  0.000000	  1.048821	  0.000000	 -0.255500	  0.000000	  0.000000	  0.000000	  0.000000	  0.000000	  0.000000	  0.260447	  0.000000	 -0.358536	  0.000000	  0.000000	  0.000000
1.802000	  0.000000	  0.000000	  0.000000	  1.051592	  0.000000	 -0.255035	  0.000000	  0.000000	  0.000000	  0.000000	  0.000000	  0.000000	  0.258548	  0.000000	 -0.358208	  0.000000	  0.000000	  0.000000
1.802500	  0.000000	  0.000000	  0.000000	  1.054364	  0.000000	 -0.254570	  0.000000	  0.000000	  0.000000	  0.000000	  0.000000	  0.000000	  0.256648	  0.000000	 -0.357880	  0.000000	  0.000000	  0.000000
1.803000	  0.000000	  0.000000	  0.000000	  1.057135	  0.000000	 -0.254105	  0.000000	  0.000000	  0.000000	  0.000000	  0.000000	  0.000000	  0.254749	  0.000000	 -0.357552	  0.000000	  0.000000	  0.000000
1.803500	  0.000000	  0.000000	  0.000000	  1.059906	  0.000000	 -0.253639	  0.000000	  0.000000	  0.000000	  0.000000	  0.000000	  0.000000	  0.252850	  0.000000	 -0.357224	  0.000000	  0.000000	  0.000000
1.804000	  0.000000	  0.000000	  0.000000	  1.062677	  0.000000	 -0.253174	  0.000000	  0.000000	  0.000000	  0.000000	  0.000000	  0.000000	  0.250951	  0.000000	 -0.356896	  0.000000	  0.000000	  0.000000
1.804500	  0.000000	  0.000000	  0.000000	  1.065448	  0.000000	 -0.252709	  0.000000	  0.000000	  0.000000	  0.000000	  0.000000	  0.000000	  0.249051	  0.000000	 -0.356568	  0.000000	  0.000000	  0.000000
1.805000	  0.000000	  0.000000	  0.000000	  1.068219	  0.000000	 -0.252244	  0.000000	  0.000000	  0.000000	  0.000000	  0.000000	  0.000000	  0.247152	  0.000000	 -0.356240	  0.000000	  0.000000	  0.000000
1.805500	  0.000000	  0.000000	  0.000000	  1.070843	  0.000000	 -0.251817	  0.000000	  0.000000	  0.000000	  0.000000	  0.000000	  0.000000	  0.245617	  0.000000	 -0.355820	  0.000000	  0.000000	  0.000000
